<?xml version="1.0"?><svg version="1.2" baseProfile="tiny-ps" viewBox="0 0 300 300" xmlns="http://www.w3.org/2000/svg" xmlns:xlink="http://www.w3.org/1999/xlink"><title>IS/bimi</title><g><g fill="#bd9d9b" transform="matrix(.1 0 0 -.1 0 300)"><path d="M1766 2699c-38-5-96-16-130-25l-61-15-101-49-101-49-77-72-77-72-39-66c-43-73-85-184-96-257l-7-46-14-5-14-6-34 33-34 33-20 46c-11 26-25 76-30 112l-11 64v353l-250-2-250-1V240l253 2 252 3 1 273 1 272 74 75c40 41 81 89 91 107l17 33 1 32v31l-31 26c-39 33-45 32-63-2-15-30-104-117-112-109-2 2 2 17 10 32l15 29-1 443c-1 244 1 445 3 447 2 3 34-15 71-39l66-44 22-73 21-73 42-74 42-74 55-57c111-114 252-189 536-284l170-57 70-38 69-37 31-41 31-41 7-41 6-42-10-39-11-39-26-31c-14-17-43-40-63-50l-38-20-73-11-73-11-71 7-70 6-75 25c-133 45-258 139-312 236-12 21-25 37-30 36-8-3-248-276-299-339l-29-37 43-58c24-33 74-87 111-120l67-61 81-48 80-47 93-34c51-18 133-41 181-50l89-17h290l70 15c39 9 107 30 153 48l82 31 62 42c34 22 85 64 113 93l52 51 46 74 45 74 22 70 22 70 5 106 5 107-17 78-17 79-44 92-44 92-57 61c-115 124-227 186-533 293-102 35-207 75-234 88l-50 23-42 40-42 41-11 40c-31 114 9 195 123 245l49 22 77 5 78 6 73-22 73-23 51-32c51-33 112-96 143-149l17-28 11 3c19 5 334 375 334 393 0 7-27 42-61 78l-61 67-84 56-84 56-83 34c-46 18-116 40-157 49l-73 15-101 5-101 4-69-10zm279-384 40-14-40 5c-22 2-60 8-85 13l-45 8 45 1h45l40-13zm-660-763c-3-3-11 0-18 7l-12 12 18-7c10-3 15-9 12-12z"/></g><g fill="#bc4258" transform="matrix(.1 0 0 -.1 0 300)"><path d="M1740 2674c-14-3-61-14-104-25l-79-20-76-37c-41-20-82-37-91-37h-15l3-13 2-13-9 5-9 6-39-29c-120-87-223-273-240-433l-6-58h-11c-23 0 51-40 95-51l47-12-5-36c-7-44-17-57-49-65l-24-6-20 10-20 11v65l11 11 10 10-33 21c-18 11-49 37-68 57l-35 36 16-6 16-6-33 68-34 68-10 65-10 65v349l-12-12-12-12H444l-12 12-12 12V240l253 2 252 3 1 273 1 272 74 75c80 81 108 125 109 168v28l-12-3c-18-3-58 24-58 40v13l-11-6-10-7 5-14 5-14-7 2c-4 2-31-22-61-52l-55-54-3 10c-2 6 3 23 11 39l15 28-1 444c-1 244 1 445 3 447 2 3 34-15 71-39l66-44 22-73 21-73 42-74 42-74 55-57c111-114 244-185 525-280 246-84 321-124 366-196l22-37 1-56 1-56-22-38-22-37h18l-4-13c-3-6-24-24-48-38l-42-27-55-12-55-13h-85l-85 1-75 22c-76 22-159 63-218 107l-32 24 6 10 5 9-8-2c-4-2-8 0-8 4s-16 24-36 45-41 47-46 57l-10 19-27 3-26 3-149-172-150-171 17-30c9-17 58-71 107-121l91-90 83-49 83-48 93-34c51-18 133-41 181-50l89-17h290l70 15c39 9 107 30 153 48l82 31 62 42c34 22 85 64 113 93l52 51 46 74 45 74 22 70 22 70 5 106 5 107-17 78-17 79-37 80-38 80-51 62c-56 67-131 126-163 128-11 1-33 11-49 23-38 28-167 81-359 147-86 30-182 65-214 80l-58 25 6 10 6 10-16-6-15-6 7 18 6 17-18-7c-11-4-17-4-13-1l6 7-28 45-29 46-7 43-6 44 6 36 7 35 35 38 34 39 52 22 52 22 77 5 77 6 73-22 73-23 51-32c51-33 112-96 143-149l17-28 11 3c11 3 251 277 311 355l25 33-15 22c-44 68-227 223-235 200-1-4-37 9-80 29-43 21-114 47-157 59l-80 22-155 3c-85 2-166 1-180-1zm115-219v-20l-22-3-23-3v19c0 24 10 34 30 30l15-3v-20zm293-49 4-18-18 4-19 3-3 19-4 18 18-4 19-3 3-19zm-168-75c30-5 81-19 114-31l58-22 31-28 32-28-82 40-82 39-90 12-91 11-73-12-72-12-61-30c-78-38-91-38-34 0 86 58 223 82 350 61zm497-14-15-23 14-19 14-19v-64l-14-11c-16-14-77-17-96-6l-13 8-23-29-23-29-11 11-11 11 36 37 35 37v23c0 27 18 46 42 46h18l16 25 16 25h30l-15-23zm-367-87c0-5-5-10-11-10h-10l6 10c3 6 8 10 11 10 2 0 4-4 4-10zm110-65 13-15-17 6c-9 3-16 10-16 15 0 13 6 11 20-6zm-1530-40v-10l-10 15c-5 8-10 20-10 25v10l10-15c5-8 10-19 10-25zm97-47-5-13-1 19c-1 11 2 17 5 13 3-3 4-12 1-19zm-49-81c-2-11-9-22-15-25l-13-4-6 16c-3 9-4 23 0 31l5 15 16-6 16-7-3-20zm113-34 14-18-17 14c-10 7-18 15-18 17 0 8 8 3 21-13zm55-48 19-14-16-1c-9 0-22 7-29 15l-12 15h9c5 0 18-7 29-15zm482-27c7-7 12-20 12-29v-18l-21-6c-11-4-22-5-24-3-4 4-8 30-6 51l1 17h13c7 0 18-5 25-12zm-840-46 4-14-23 4-22 3-5 13-4 14 23-4 22-3 5-13zm-78-128c0-2-7-4-15-4s-15 4-15 10v9l15-5c8-4 15-8 15-10zm53-30 37-7v-27h-16c-29 0-104 22-104 31v9h23c12 0 39-3 60-6zm337-69c25-13 39-24 33-25-21 0-93 31-93 41 0 13 10 11 60-16zm-310-32 15-15-49 7c-62 8-76 14-76 30v13l48-10 47-10 15-15zm847-37c79-66 198-121 463-211 197-68 259-97 314-148 44-42 34-40-29 5-56 41-105 61-315 133-260 89-350 132-455 219l-30 25 12 1c6 0 24-11 40-24zm-534-6c26-11 49-25 52-30l6-10h-8c-18 0-115 38-126 49l-11 11h21c11 0 41-9 66-20zm411 5 20-15h-16c-8 0-21 7-28 15l-12 15h8c5 0 18-7 28-15zm-408-80c32-14 54-28 51-31-8-8-98 25-117 43l-14 13h12c6 0 37-11 68-25zm1054-30c0-15-19-24-37-17l-13 4v36l13 5c15 5 37-11 37-28zm-1410-91v-16l-12 4c-6 2-14 10-16 16l-4 12h32v-16zm390-19c0-8-4-15-10-15h-9l5 15c4 8 8 15 10 15s4-7 4-15zm-66-29 29-24-7-11-7-11h20c25 0 28-15 5-24-24-9-32-7-31 7 0 6-1 19-1 28l-2 16-25 11c-14 6-25 16-25 22 0 15 12 12 44-14zm1011-36 6-10h-10c-6 0-11 5-11 10 0 6 2 10 4 10 3 0 8-4 11-10zM700 1155l12-14-7-11c-15-25-52-3-41 25 7 19 20 19 36 0zm153-22c-7-2-19-2-25 0l-13 5h50l-12-5zm-323-43 25-8h-20c-11 0-33 4-50 8l-30 8h25c14 0 36-4 50-8zm409-129c-19-21-42-42-52-47-9-5-47-38-84-74l-66-65 26 36c35 46 189 188 206 189 2 0-12-17-30-39zm-389-9c0-4-15-16-32-26l-33-18 30 26c34 28 35 29 35 18zm856-53 19-22-22 12c-13 6-23 16-23 21 0 15 5 12 26-11zm-926 6c0-2-10-9-22-15l-23-11 19 15c21 17 26 19 26 11zm1990-146c0-34-7-39-43-32l-27 5v37l22 20 21 21 14-11 13-11v-29zm-1239 31 19-11v-17c0-10-7-28-16-40l-15-22h-23c-44 0-61 47-29 82 18 20 36 23 64 8zm304-70 6-10h-10c-6 0-11 5-11 10 0 6 2 10 4 10 3 0 8-4 11-10zm-637-32c-14-18-31-34-39-36l-14-5 34 37c43 45 52 47 19 4zm1705-35c-13-2-33-2-45 0l-23 4h90l-22-4zM1441 445c41-19 110-45 154-57l80-22h390l80 27c83 27 189 85 232 125 14 13 28 21 31 18 8-8-115-106-134-106-4 0-15-6-23-14-9-8-57-27-106-41l-90-27-143-7-144-8-36 8c-21 5-77 17-127 28l-90 21-90 43-90 44-50 47-50 47 66-46c37-24 100-61 140-80zm-871 95c0-5-5-10-11-10h-10l6 10c3 6 8 10 11 10 2 0 4-4 4-10zm200-79v-59l-12-5-13-5 17-1c9-1 20-5 23-11l6-10H619l6 10 6 10 47 1 47 2-27 4-28 4 12 22c15 30 71 97 81 97h7v-59zm1258 42-3-18h-30l-3 18-3 17h42l-3-17z"/></g><g fill="#774344" transform="matrix(.1 0 0 -.1 0 300)"><path d="M1740 2674c-14-3-61-14-104-25l-79-20-76-37c-41-20-82-37-91-37h-15l3-13 2-13-9 5-9 6-39-29c-116-84-218-265-239-422l-7-49 49-21c27-11 63-21 80-22l30-2 42-34 42-33v16c0 8-5 27-10 43l-10 28 15-19c8-11 16-25 16-30 1-6 5 3 9 19l7 30 10-35 11-35 2 20 2 20 7-25 7-25 23-10 23-10-5-45-5-45 15-17 15-17-21 6-21 5v-9c0-5 8-20 17-33l17-25-23 20-22 19-9-14-9-14-6 27c-9 34-18 34-42 1l-19-26 4 38 5 37-18 13-18 13-19-10-19-10-13 11-14 11-6-16c-3-8-2-23 1-32l7-18-15 11-14 12-40-7-40-7-12 16-11 15-7-7-7-7 21-62c11-35 39-93 61-131l41-68 52-53c109-112 244-183 522-277 246-84 321-124 366-196l22-37 1-56 1-56-22-38-22-37 17-1 17-1-12-5c-25-10-12-23 32-34 62-16 51-22-12-8l-51 12-33-20c-19-11-59-26-89-33l-55-13h-85l-85 1-75 21-75 22-80 46c-81 46-125 79-125 95v9l13-7c6-4-4 9-22 29-19 21-37 37-40 37s8-14 24-30l29-30h-11c-7 0-21 12-32 26l-21 26 6 9c3 5 1 16-4 26l-10 17-23 2-24 2-23-22c-13-11-33-33-44-48l-19-28 17 7 18 7-23-32-22-32 23-9 23-9 11 14 12 15 6-26 6-25-12-19-12-20 7-7 7-8 12 12c7 7 17 12 24 12h12l21-50c12-27 26-50 31-50 20 0 9-20-14-26l-25-6 6-15 6-15-20 12-20 13-31-23-30-22-14 7c-7 3 13-18 44-49l58-55 92-46 93-45 80-22 80-21 195-1 195-1 80 27c83 28 189 86 232 126 14 13 28 21 31 18 8-8-115-106-134-106-4 0-15-6-23-14-9-8-57-27-106-41l-90-27-128-5-128-6 4-11c2-6 30-27 62-46 32-18 53-36 48-37-5-2-43 19-84 47l-74 50-85 15c-102 17-172 40-265 88l-70 35-80 67c-44 37-95 74-113 83l-33 16 5 12 5 13-15 11c-8 7-14 20-14 28v16l-37-35c-21-18-30-25-22-14 33 41 31 49-4 16l-36-34 17-31c9-17 58-71 107-121l91-90 83-49 83-48 93-34c51-18 133-41 181-50l89-17h290l70 15c39 9 107 30 153 48l82 31 62 42c34 22 85 64 113 93l52 51 46 74 45 74 22 70 22 70 5 106 5 107-17 78-17 79-37 80-38 80-51 62c-56 67-131 126-163 128-11 1-33 11-49 23-38 28-167 81-359 147-86 30-182 65-214 80l-58 25 6 10 6 10-16-6-15-6 7 18 6 17-18-7c-11-4-17-4-13-1l6 7-28 45-29 46-7 43-6 44 6 36 7 35 35 38 34 39 52 22 52 22 77 5 77 6 73-22 73-23 51-32c51-33 112-96 143-149l17-28 10 3c12 3 155 163 155 172 0 14-19 4-46-23l-29-29-13 19-13 19-20-10-19-11-1-32-1-32-8 49c-5 26-11 54-14 62l-5 14h-101v31l38-7 37-6-35 30c-19 17-67 47-107 67l-72 36-90 12-91 11-73-12-72-12-61-30c-34-17-65-30-70-30-22 0 87 62 136 77l55 17h110l110-1 75-28c41-15 98-42 125-59 28-18 56-36 62-40l13-7-10 26-10 26 15 22c17 26 14 55-6 68l-14 9h11c5 0 15-5 20-10l10-10 47 16 48 16 27-6c15-4 46-8 69-11 49-4 83-20 83-39 0-7-11-29-25-49l-24-36 8-6 9-5 51 63c28 34 51 65 51 68 0 13-100 125-132 150-68 50-113 78-116 71-1-4-37 9-80 29-43 21-114 47-157 59l-80 22-155 3c-85 2-166 1-180-1zm741-181 14-18-17 14c-17 13-22 21-14 21 2 0 10-8 17-17zm-617-15c-3-4-1-16 5-25l9-17-21-11-22-11-23 4-23 4 3 22 3 21 18 10c9 6 26 11 36 11h20l-5-8zm284-51c6-5 12-18 12-28v-19h-16c-9 0-27 9-41 20l-26 20h35l-5 14-6 15 17-6c9-3 23-10 30-16zm49-83c-3-3-12-4-19-1l-13 5 19 1c11 1 17-2 13-5zm54-111 14-18-17 14c-10 7-18 15-18 17 0 8 8 3 21-13zm-131-3c0-5-7-10-16-10h-15l6 10c3 6 10 10 16 10 5 0 9-4 9-10zm-730-209c-5-11-15-23-20-26l-10-6v7c0 8 30 44 37 44 2 0-1-9-7-19zm-75-492 9-9-34 6c-37 7-60 21-60 35v8l38-15c20-9 41-20 47-25zm82 17c79-67 189-117 466-212 195-67 256-96 311-147 44-42 34-40-29 5-56 41-105 61-315 133-260 89-350 132-455 219l-30 25 12 1c6 0 24-11 40-24zm572-81c2-3-5-8-17-12-21-8-22-10-22-38v-15h-60v20h-22l-23 1 18 14 19 14-6 19-6 19 57-9c31-5 59-11 62-13zm-124-205 6-10h-10c-5 0-13 5-16 10l-6 10h10c5 0 13-4 16-10zm435-110h9l-6-16-6-15-18 31c-11 17-19 36-19 43l1 12 15-27c8-16 19-28 24-28zm-980-174c0-3-4-8-10-11l-10-6v10c0 6 5 11 10 11 6 0 10-2 10-4zm1150-117 6-23 17 24 18 25-6-26-6-25 15-13 15-13 12 7 11 7-11-20c-6-11-11-34-11-51v-31l-20-20-20-20-1-22v-23l-11 23-11 22h-28c-15 0-34 3-43 6l-16 6-16-33-15-34 5 39 5 38-27-5-27-5 19 14c10 7 23 15 29 17l10 3 7 64c4 36 8 54 9 40l2-25 17 21 17 21 14-5 14-5-5 26-5 25 16-3 16-2 5-24zm-910-139c0-5-4-10-10-10-5 0-10 5-10 10 0 6 5 10 10 10 6 0 10-4 10-10zm975-50 6-10h-10c-6 0-11 5-11 10 0 6 2 10 4 10 3 0 8-4 11-10zm104-16c2-2-17-4-42-4h-47v18l43-5c23-3 44-7 46-9zm-149-54c0-5-2-10-4-10-3 0-8 5-11 10l-6 10h10c6 0 11-4 11-10zm-30-35c-7-9-15-13-17-11-6 6 20 36 26 30 2-2-2-10-9-19zm-127-30c-3-9-8-14-10-11-3 3-2 9 2 15 9 16 15 13 8-4zm-271-5c0-3 2-18 3-34l2-28-38 5-38 5-23-16-23-15 24 26 24 27h-25l23 19 24 20 23-2c12-1 23-4 24-7zm-437-36 49-2 3-8 3-9-34-2-34-3-36 15c-20 8-36 18-36 21s8 2 18-2c9-5 39-9 67-10zm305-58c0-6-66-46-76-46-5 0 9 11 31 25 43 26 45 27 45 21zM420 2145v-530l49-2c27-1 59-7 70-13l21-11v-28l-32 6c-18 3-50 11-70 18l-38 13V240l253 2 252 3 1 273 1 272 74 75c80 81 108 125 109 168v28l-12-3c-7-1-23 3-35 10l-23 13v30l-10-6-11-7 6-21c2-12 2-17-1-10l-5 12-56-57-56-57-4 11c-2 6 3 23 10 38l14 27 2 188 1 189-63 22c-34 13-68 29-76 36l-15 14 7 6 7 7 53-23c28-13 60-30 69-38l17-14-2 251c0 138 1 253 4 255 2 3 27-10 54-29l50-33 4 9c1 6-4 18-13 28s-16 23-16 29v12h14c8 0 17 7 20 16 9 22 8 24-9 18l-15-6v11c0 6 1 12 3 14 1 2-11 18-26 37l-28 33 11 7 11 6-25 55-25 54-10 65-11 65v349l-12-12-12-12H444l-12 12-12 12v-529zm270-20v-10l-10 15c-5 8-10 20-10 25v10l10-15c5-8 10-19 10-25zm128-103 26-52 38-27c39-26 45-37 29-47l-9-6-45 52c-52 62-77 108-76 140l1 23 5-15c2-8 16-39 31-68zm-78 13 20 6v-51l-20-32-20-33v15l-1 15-14-25-15-25 6 26 5 25-15 13c-9 8-16 21-16 31v18l15 6 15 5 1 33 1 33 9-33 10-33 19 6zm-192-193 4-14-23 4-22 3-5 13-4 14 23-4 22-3 5-13zm-40-87c7-7-17-6-45 1-13 4-23 10-23 14v9l31-9c18-5 34-12 37-15zm37-13c-3-3-11 0-18 7l-12 12 18-7c10-3 15-9 12-12zm-17-38 32-13v-52l-37 6-38 5 20-9 20-10h-18l-18-1-5 15-6 15h-18c-24 0-29 9-23 42l5 28 27-6c14-4 41-13 59-20zm335-84c26-11 49-25 52-30l6-10h-13c-23 0-112 37-116 49l-4 11h15c8 0 35-9 60-20zm11-80 46-19v-11c0-14-17-13-70 7-51 19-70 31-70 45v10l24-6c13-3 45-15 70-26zm-9-112c17-6 34-15 39-19l10-9-10 1c-5 0-31 11-59 25-48 23-44 24 20 2zm46-79c-2-8-4-20-4-26 0-7-9-20-19-30l-18-16v18c0 10 7 26 16 36l16 18-6 9c-3 5-26 15-51 22s-45 16-45 20v8l58-22 57-23-4-14zm-398-4c1-5-6-11-15-13l-18-3v32l16-3c8-2 16-7 17-13zm315-42c15-10 37-28 50-40l22-22-19-11c-11-5-25-10-32-10s-20-6-29-12c-9-7-5-3 7 9l24 23-11 20c-6 11-19 24-30 30s-20 15-20 20c0 14 7 13 38-7zm-330-40c-10-2-28-2-40 0l-23 4h40l40 1-17-5zm188-77 14-5 9 32 9 32v-135l-9-6-9-5 5-27 5-27-14 30-14 30-11-25-10-25-2 25c-1 14-3 48-4 77-2 29-5 65-8 80l-6 28 16-37c8-20 21-39 29-42zm224 6c0-5-11-14-25-20-39-18-44-14-10 7 36 23 35 23 35 13zm-425-42 6-10h-20c-11 0-23 5-26 10l-6 10h20c11 0 23-4 26-10zm351-21c-16-5-34-6-39-2l-9 6 12 7 11 7 27-5 27-5-29-8zm-301-39 20-9h-17c-9-1-24-4-34-8l-17-6 7 11 6 11-32 4-33 4 40 1c22 0 49-3 60-8zm-68-26c-3-3-12-4-19-1l-13 5 19 1c11 1 17-2 13-5zm479-93-38-39 18-10c10-5 19-17 20-26l2-16-9 6c-5 3-7 9-4 14l5 8-15 6c-26 9-53-7-122-74l-66-65 26 36c34 46 199 199 215 199 3 0-11-18-32-39zm-396-19c0-4-15-16-32-26l-33-18 30 26c34 28 35 29 35 18zm-70-47c0-2-10-9-22-15l-23-11 19 15c21 17 26 19 26 11zm418-217c-14-18-31-34-39-36l-14-5 34 37c43 45 52 47 19 4zM570 540c0-5-5-10-11-10h-10l6 10c3 6 8 10 11 10 2 0 4-4 4-10zm200-79v-59l-12-5-13-5 17-1c9-1 20-5 23-11l6-10H619l6 10 6 10 47 1 47 2-27 4-28 4 12 22c15 30 71 97 81 97h7v-59zm1765 1849-6-10h10c6 0 11 5 11 10 0 6-2 10-4 10-3 0-8-4-11-10zM1170 659v-10l10 6c6 3 10 8 10 11 0 2-4 4-10 4-5 0-10-5-10-11z"/></g><g fill="#502628" transform="matrix(.1 0 0 -.1 0 300)"><path d="M1740 2670c-73-12-191-50-254-81-110-55-232-155-267-220l-10-19h-30l-34-72-33-73-17-79-18-78 14-9c8-5 23-9 34-9l20 1-22 18-23 19v28c0 32 8 28 13-7l4-24 19 2c10 1 26-3 35-8l17-9 5 13 5 12 2-25c1-14 2-29 1-33l-2-9 20 7 19 6 26-26 26-26 5 13 6 14-16 43c-23 66-18 73 10 13l25-53 11 7 11 6-5 77c-7 90 0 76 11-24l7-70 39 58 38 57 66 61c72 66 178 142 202 145 8 1 42 7 75 14l60 12 90-5 90-6 55-19c31-11 80-32 110-47l55-28-14 16c-7 9-21 19-32 22l-19 6 6 10 5 9 10-5 9-6-9 23-8 23-39 7c-22 4-68 12-103 18l-63 11-13 12-12 12h76l-10-6-11-6 18-7c9-4 45-9 78-11l61-4-25 7c-14 5-40 15-58 23l-32 15 7 7c3 4 15 7 25 7h18v11c0 6-5 20-11 32l-12 22 27-24c14-14 26-21 26-16v9l12-12 11-11 61 4 61 4-43-8-44-8-8-13-9-14 12-15 12-15-15 8c-8 4-4-2 9-13l23-21h22l21 1-27 15c-40 21-35 24 13 8l41-15 35 7 35 7 5 13 5 13 18-4c10-2 31-10 48-19 33-17 48-11 30 12-7 8-13 20-14 28l-2 14h13c8 0 17-4 20-10 3-5 16-10 28-10h22l-14-9-14-9 24-8c13-4 28-8 32-9 5 0 15-8 22-19l14-18 10 6 10 7-27 32c-36 42-93 98-122 119l-24 18-15-13-16-12 13 16 12 16-37 25c-91 59-211 103-338 123l-90 15-90-1c-49-1-110-5-135-9zm337-92-5-13-1 19c-1 11 2 17 5 13 3-3 4-12 1-19zm-187-83-12-14 8-23c4-13 14-28 23-35l16-12-20 5-21 5-27-25-27-25v29h-30v24l-40-39c-36-35-58-45-27-13 6 8 21 24 32 37l20 24-42-22c-63-31-66-25-5 9l53 31-6 9c-4 6-16 11-28 11l-22 1 40 9c22 6 54 11 72 12 18 2 35 6 39 10 13 13 17 7 4-8zm490-21c0-2-4-5-9-9l-10-5-5 8-5 9h14c8 0 15-2 15-3zm40-49v-10l-10 15c-5 8-10 11-10 7v-8l-11 7-11 7 13 8 13 8 8-12c4-7 8-16 8-22zm-780-54c-8-5-33-12-55-15l-40-6 45 14c53 17 71 19 50 7zm-303-143-5-13-1 19c-1 11 2 17 5 13 3-3 4-12 1-19zm-917-9v-436l57-6 56-6 15-15c23-22 10-29-34-18-22 6-51 13-66 16l-28 6v-18l53-12c67-16 84-25 92-50l6-20-9-16-10-17 8-29 9-28-11-6-10-6 4-30 5-29-21 6c-12 3-37 8-56 12-19 3-41 10-48 16l-12 10v-194l1-194h109v8c0 4-12 7-27 8-16 0-37 4-48 9l-20 9h20c11 1 36-4 57-9l36-10 6-15 5-15H420v-28l48-7c70-10 92-16 92-26v-9l-37-1c-21 0-47-4-58-9l-20-8 53-7 52-8 7-10 6-10-24 6c-13 4-41 7-61 7h-38v15c0 8-4 15-10 15h-10V240l253 2 252 3 2 233 1 233-13-11-14-11 6-15 5-14h-30l-36-40c-39-43-52-50-42-23l6 18-16-20-15-20 3-103 3-102H620v9c0 5 3 11 8 13 4 2 33 47 65 101 69 116 124 184 272 335 107 110 125 133 139 178l7 22-26 6-26 7 6 9 6 10-17-7-17-6 8 14c5 8-4 3-19-11l-27-24 36-18c47-25 44-32-5-12l-41 17-7-8-7-7 29-24c35-31 29-42-8-13l-27 21-19-17c-11-10-20-24-20-31v-13l31-17 31-16-11-11-11-11-41 23-40 23-27-23c-101-89-191-195-261-306-28-45-51-67-51-48 0 2 37 57 82 122l82 118 77 78c42 42 73 77 68 77-19 0-7 22 27 54l37 34 2 53c2 30 1 66-2 82l-5 27h-20l5-20 5-20h-19l11-20 10-20-14 6c-9 3-15 9-14 12 2 14-14 42-25 42h-11l12-12c7-7 12-15 12-20v-7l-14 5-14 6-22-12-23-12-7 12-8 13 11 13c7 6 14 12 17 11 9-2 70 22 70 28 0 3-5 3-10 0l-10-6v34l-22-19-21-19 7 13 7 12h-8c-5 0-15-6-22-13l-14-12 7 12 6 11-11 4-12 4 34 17 34 17-22 6c-13 4-24 10-24 15-3 20-5 24-12 37l-8 12 6 20 6 20 27-5 27-5-20 10c-11 6-25 22-31 35l-12 24 12 4c6 2 25-2 43-10 18-7 38-13 45-13h12l-19 14c-11 7-36 18-56 25l-35 11-1 76-1 76 32-7c17-4 42-9 56-11l25-4-35 16c-19 9-45 20-57 25l-23 9v15c0 8 4 15 8 15 13 0 111-36 119-43 3-4 10-7 15-7h8v60h-15c-7 0-19-8-24-17l-11-18 3 25 2 24-52 19c-29 11-53 23-53 28 0 13 9 11 74-11 32-12 60-19 63-17 6 7 6 188-1 194-3 3-10-5-15-18l-10-24v23c-1 24-8 35-56 87-35 38-55 88-54 136l1 34 10-28 10-27 13 2 13 3 46-62 46-62 39-27c22-14 45-24 51-22l10 3-36 38c-21 21-33 37-28 36s14-1 21 0l11 1-2 13c-1 6-6 18-10 26l-9 14 19-6 19-7-22 19-23 19v19c0 10-11 37-24 59l-24 42 8 12 8 12 6-13 6-14-6 25c-3 14-8 122-11 240l-6 215H420v-436zm392 275c1-114-4-123-12-19-5 85-4 112 6 102 3-2 5-40 6-83zm-127-351 37-91 15 2c8 1 18 8 23 16l8 13-2-56-2-56-17-19c-9-10-17-27-18-38l-1-19-5 13-5 13-14-12c-8-6-14-16-14-22s-17-47-38-92c-21-44-44-91-50-105l-12-25 5 28c6 27 51 133 81 189 8 14 14 35 14 46v20l-15 12-15 12v40l-20 5c-30 8-24 18 11 18h32l10 16 10 16-28 74c-15 41-36 86-47 101-24 35-23 50 2 18 10-14 35-66 55-117zm132 105-5-13-1 19c-1 11 2 17 5 13 3-3 4-12 1-19zm-294-98h27v-40l-52 20c-29 11-54 20-55 20-2 0-3 6-3 14v15l28-15c15-7 39-14 55-14zm-13-162v-10l-15 12c-8 7-15 14-15 16s7 1 15-2c8-4 15-11 15-16zm40-44v-15l-10 6c-5 3-10 13-10 21v15l10-6c6-3 10-13 10-21zm4-100 6-15-15-5-15-6-27 18-27 17 19 7c26 9 52 2 59-16zm155-92 16-13-12 6c-18 9-17 3 17-77 17-39 29-73 27-74-6-6-66 138-72 171l-5 30 7-15c3-8 13-21 22-28zm-128-119c-12-20-14-14-5 12 4 9 9 14 11 11 3-2 0-13-6-23zm73 1 16-6v-17c0-9-4-22-9-29l-8-13-27 35-27 36h20c11 0 26-3 35-6zm40-90c9-3 16-13 16-20v-15l-20 11c-11 6-20 15-20 20 0 12 3 12 24 4zm61-34 6-10h-10c-6 0-11 5-11 10 0 6 2 10 4 10 3 0 8-4 11-10zm-221-30c11 0 17-2 14-5-3-4-29-3-57 1l-51 7v25l38-14c20-7 46-13 56-14zm8-41c32-17 16-20-45-7l-57 12v19l41-7c23-4 50-11 61-17zm168 11c0-5-4-10-10-10-5 0-10 5-10 10 0 6 5 10 10 10 6 0 10-4 10-10zm43-19c-8-36-10-36-15-3l-4 29h26l-7-26zm-263-31 15-10h-20c-11 0-27 5-35 10l-15 10h20c11 0 27-5 35-10zm94-6 6-15-10 6c-6 3-10 10-10 16 0 14 7 11 14-7zm-27-47 6-7h-21c-11 0-24-4-27-10l-6-10h20c11 0 23-4 26-10 8-13 3-13-32 1-15 7-39 12-53 11h-25l18 5c18 5 24 23 7 23-5 0-10 4-10 8v9l45-7c25-4 48-10 52-13zm77-51 24-58 4 13 4 13 12-8c17-10 15-24-5-28l-17-3 19-19 19-19 12 34 12 34 1-23 1-23 11 7 11 6-12-22-12-22 10-10 10-10-14-46-15-47 6-30 5-30-18 44-19 44-8-12c-4-7-11-25-16-39l-9-27 5 33 5 33-16 24-15 23 11 40 10 40-16 49c-9 26-23 60-30 75-17 32-18 46-3 31 5-5 21-36 33-67zm-81-30c9-22 0-24-45-14-23 5-47 7-55 4l-13-5v29h108l5-14zm304-182c-3-3-12-4-19-1l-13 5 19 1c11 1 17-2 13-5zm8-45 20-9-40 6c-22 4-47 11-55 16l-15 9 35-7c19-4 44-10 55-15zm-45-29 15-10h-17c-9 0-20 5-23 10l-6 10h8c4 0 15-5 23-10zm-160-4c0-2-7-19-15-37l-14-34v15c-1 26 11 60 20 60 5 0 9-2 9-4zm79-39v-22l-9 20c-5 11-9 24-9 28l-1 8 10-6c6-3 10-16 9-28zm-53 11 7-11-18-13c-23-17-26-14-18 14 6 24 18 28 29 10zm129-8 6-10h-15c-8 0-18 5-21 10l-6 10h15c8 0 18-4 21-10zm-279-34c-15-13-47-34-69-46l-40-23 7 11c9 15 108 82 121 81 6 0-3-10-19-23zm97-26c-3-11-7-20-9-20s-4 9-4 20 4 20 9 20h9l-5-20zM474 293l-19-14-4 12-3 11 13 8c7 5 17 6 23 3l9-6-19-14zm2129 2034c-24-26-46-67-40-73 2-3 21 16 41 40l36 45-8 5-9 5-20-22zm-391-22 11-25h12c7 0 18 6 24 14l12 15-20 10c-11 6-27 11-35 11h-16l12-25zm-422 2-65-13-55-25-55-26-42-44c-23-24-49-53-57-64l-15-20 9 34 10 35-36-35c-19-19-51-59-69-89l-34-56 4-19c2-11 4-23 4-26 1-4 9-10 18-13l17-7 12 15 11 16-4-76-4-76 74-77 75-76 16-39c9-21 16-46 16-55-1-9-12 12-26 46l-26 63-61 57-62 57-4-19-3-19 28-23c39-31 19-29-22 2-18 14-35 25-38 25-11 0-5-65 9-105 8-21 12-41 10-44-4-4-20 31-35 79l-8 25-2-60-2-60-7 30-7 30 9 47 10 48-13 15-12 15-18-10-19-10-12-34-13-35-8 5-8 5 12 22c6 12 13 34 14 50l4 28-31-3-30-3-9 15-10 15v-15c0-8 14-44 30-78l30-64 42-48c57-64 177-156 141-107-13 17-36 74-27 64 5-4 20-29 34-55l25-46 78-34c44-18 81-32 83-30s-5 22-16 44c-10 21-21 53-25 69l-5 30 21-58 21-58 23-15 23-15 58 8 58 8 13 25 12 25-42 44-42 45 52-42 51-42 4 12 4 12 40-15 40-16 19 8c11 4 29 8 40 8l20-1-28-10-27-10 6-9 5-9h-52l8-12c4-7 6-20 5-29l-3-15 55-52c70-66 62-68-12-2l-56 50-19-6-19-6-39 17-39 18-62-9-63-9 160-54c88-29 187-66 221-82 105-52 181-125 198-191 9-39 2-35-28 16l-26 45-43 34c-70 56-128 84-282 137-81 27-152 50-157 50h-9l7-12 7-11-12 7-11 7 6 11 7 11-15-6-16-5-8 8c-5 5-47 25-93 45-46 19-115 56-152 81l-67 45-51 55-52 56-37 69-38 69-10-9c-5-5-21-11-36-15l-26-6-21 28-21 27 6-35c8-51 68-167 120-232l45-57 67-51 67-51 110-53 110-53 171-57 170-57 70-38 69-37 33-43 32-43v-21c0-12 4-28 9-35l8-13 34-4c57-7 91-17 84-23-9-9-35-11-35-2v8l-35-2-35-1-4 10c-4 13-12 5-20-21l-6-21 61-17c69-20 75-33 6-16-25 7-53 10-63 8l-19-5 65-21 65-22-40 6c-22 3-49 6-59 7l-19 2-4-11-4-12 28-7c15-5 34-7 41-6l12 2v-22l11 6 10 7-13-21-13-21-12 4c-6 3-30 10-52 16l-39 10-46-24-45-24-71-13-71-12 8-7c4-4 36-17 71-31 34-13 62-27 62-31 0-17-36-6-105 32l-72 40h-67l9-9c6-5 41-25 79-45s63-36 56-36c-10 0-106 51-170 90-8 5-48 19-88 31l-72 22-73 42c-39 24-85 55-100 69-16 15-40 34-53 42-13 9-22 20-19 24 2 4-8 13-22 19l-27 12 13 8 13 9-12 7c-6 4-12 5-13 4-2-2-20-23-40-47l-38-43 6-9c10-16 23-11 30 10 3 11 10 20 15 20h10l-6-29-6-29 10-6 11-6-15-35-14-35 19 12 20 12 21-19 20-18 12-38 11-38 26-9 26-9-28-7-29-7 41-29c55-40 52-47-4-14-25 14-48 24-51 21s6-28 20-56c35-68 26-65-14 5l-31 56-19-17c-10-9-30-19-45-24l-28-7 58-46c70-55 175-108 275-138l75-23 50-2c28-2 58-6 67-10l17-7 13 11c7 6 48 34 91 62 77 50 93 69 60 69h-18l43 26 42 25 10-6 11-7 15 13 15 12-6-25-7-26 19-5 18-5-17-1c-21-1-24-16-6-27l13-8-25-6-25-6-32 7-33 7-23-18c-12-10-49-34-82-55l-60-37 125 5 125 5 81 24 81 24 76 44 76 43 38 41c21 22 29 33 17 23-11-9-42-24-67-33-26-9-47-19-47-22 0-4-10-18-21-32l-21-25 16 28 16 27-32 1-33 1 38 10 38 10 10 27 10 26-4 27-4 28h18l-3 22-3 23-34-3-33-4 6 10c3 5 19 15 35 22l30 12 6 19c3 10 10 47 14 81 5 35 9 55 10 46 0-10 6-18 11-18h10v34l15-20 14-19 1 17c0 9-4 20-10 23-5 3-10 11-10 18v11l12-12c7-7 16-12 20-12h8l-1 38c-1 29 4 117 11 197 1 6 5 1 9-9l8-20-10-50-9-51 4-58 4-57 11-11 11-11 31 53c35 61 42 59 11-2l-21-40 6-20 6-19h31l-6-52-6-53 7 15c3 8 9 17 13 20s11 13 16 22l9 17v-87l-6 10-7 11-16-31-16-31 55-6 55-7-5-8-5-8-59 5-59 6-7-21c-15-50-126-155-216-206l-34-19 58-19 59-20-10-10-9-9-57 25-57 25-75-25-74-24-137-13-138-12 63-39 64-39-13-8-13-8-11 6c-5 4-41 28-80 54l-70 48-67 11c-155 24-290 83-412 180l-77 61-50 16-49 16v12c0 7-8 19-19 29l-18 17-13-16-13-16-14 5-13 5v-8c0-21 70-108 135-169l74-68 81-48 82-48 93-34c51-18 133-41 181-50l89-17h290l70 15c39 9 107 30 153 48l82 31 60 41c84 56 151 123 204 205l45 70 26 77 26 77 6 99 6 98-12 64c-14 73-40 154-58 183l-13 19v-14l-1-15-14 25c-8 14-14 29-15 34v8l17-13 16-14-14 22-13 22-6-9-6-10-32 45c-17 25-36 45-42 45-5 0-10 5-10 12 0 13-43 53-107 98l-42 30h-46l13 8 13 9-68 31c-84 38-235 96-285 110l-37 10-4-16-5-17-1 21-1 20-57 18c-31 10-89 33-128 51l-71 32-36 42c-20 23-38 51-41 62l-5 20 12-10 13-11-10 54-10 53 7 37 7 37 35 38 34 39 52 22 52 22 77 5 77 6 73-22 73-23 51-32c51-33 112-96 143-148 9-16 21-28 27-28 11 0 115 126 115 140 0 4-14-5-32-22l-32-30-12 17-13 17-3-38-3-37-11-4-11-4 4 53 4 53-18-27c-23-37-37-36-16 1l17 28-16 17c-21 21-34 20-47-1l-10-18-2 30-1 30-8-30-8-30-1 23-1 22h-32l10 13 11 13-20 12c-10 7-19 17-19 23v10l16-15 15-16h61l-31 26-31 25-11-7-12-7 7 11 7 12h-40l-28-26-28-26-3 17-4 17 18 13 19 13-18 20-18 20-42 10c-23 6-71 13-107 16l-65 5-65-12zm325-127 6-10h-10c-6 0-11 5-11 10 0 6 2 10 4 10 3 0 8-4 11-10zm-625-190c0-5-5-10-11-10h-10l6 10c3 6 8 10 11 10 2 0 4-4 4-10zm32-72-12-12v10c0 6 3 14 7 17 3 4 9 5 12 2 2-3-1-11-7-17zm132-182c-9-15-19-25-21-22-5 5 30 56 35 51 2-2-4-15-14-29zm-339-202c118-60 249-132 270-148 34-26 3-17-50 14-106 61-211 113-240 117l-30 4-25 25-25 24h15c8 0 47-16 85-36zm135-117c30-17 89-53 130-80l75-49-25 7c-88 25-288 142-336 197l-19 21 60-33c33-18 85-47 115-63zm607 27c-3-3-12-4-19-1l-13 5 19 1c11 1 17-2 13-5zm159-110c22-87 15-87-11 1-14 44-24 82-24 85 0 16 22-39 35-86zm-514-20c21-15 38-28 38-31 0-6-78 36-85 47l-6 10h7c5 0 25-12 46-26zm79-11 14-18-17 14c-10 7-18 15-18 17 0 8 8 3 21-13zm84-58 30-26-33 18c-18 10-41 27-50 37l-17 19 20-11c11-6 34-23 50-37zm-80 15 6-10h-10c-5 0-13 5-16 10l-6 10h10c5 0 13-4 16-10zm45-20 15-10h-10c-5 0-17 5-25 10l-15 10h10c6 0 17-5 25-10zm407-12-5-13-1 19c-1 11 2 17 5 13 3-3 4-12 1-19zm24-47 10-29 37-10 37-10-32-1-31-1-5-12-6-13-6 23c-4 12-11 22-16 22h-9v30c0 38 8 38 21 1zm377-6c-3-3-9 2-12 12l-7 18 12-12c7-7 10-15 7-18zm-378-175v-8l-20 5c-11 3-20 9-20 13v8l20-5c11-3 20-9 20-13zm40 0 15-10h-45v10c0 13 11 13 30 0zm50-62c0-5-4-8-10-8h-10v45l10-15c5-8 10-18 10-22zm320-28c0-5-7-10-16-10h-15l6 10c3 6 10 10 16 10 5 0 9-4 9-10zm-90-80c0-5-4-10-10-10-5 0-10 5-10 10 0 6 5 10 10 10 6 0 10-4 10-10zm80-40v-10l-17 1c-10 1-29 5-43 9l-25 8 43 1 42 1v-10zm-1160-21v-10l-10 6c-5 3-10 11-10 16v10l10-6c6-3 10-11 10-16zm43-60-5-19 13-17 14-16-23 12c-13 7-22 15-19 17 3 3 1 21-3 40l-8 35 18-16 18-16-5-20zm-67-108-6-9 15-12c8-7 15-18 15-25 0-8 12-23 26-34l27-21h79l-6 18-6 17 16-21 15-22 37 9c20 4 38 6 41 4 2-3-10-8-28-11-17-4-34-11-37-16l-6-9 12-14 12-15h-10c-5 0-12 7-16 15l-5 15h-34c-19 0-49 3-66 6l-31 7v13c0 8-4 14-9 14-7 0-21 33-20 48 0 1-7 10-16 18-17 18-20 34-4 34h10l-5-9zm-48-121c7-11 11-20 9-20s-12 9-22 20l-18 20h9c5 0 15-9 22-20zm230-63 11-13-19-1-19-2 6 15c6 17 8 17 21 1zm37 3 6-10h-10c-6 0-11 5-11 10 0 6 2 10 4 10 3 0 8-4 11-10zm30-30 6-10h-10c-5 0-13 5-16 10l-6 10h10c5 0 13-4 16-10zM420 1643v-23h10c13 0 13 11 0 30l-10 15v-22zm0-69v-21l33-7c17-3 46-8 62-11l30-5-30 15c-16 8-39 14-49 15h-19l-13 18-13 17-1-21zm485-14c3-5 8-10 11-10 2 0 4 5 4 10 0 6-5 10-11 10h-10l6-10zm-37-87c56-26 69-25 58 4l-7 17-8-12-7-12-37 15c-58 24-57 16 1-12zm32-93c0-5 5-10 10-10 6 0 10 5 10 10 0 6-4 10-10 10-5 0-10-4-10-10zm-84-10c6-6 28-13 50-16l39-5-34 15c-18 9-40 16-49 16h-16l10-10zm14-65c7-8 16-15 21-15s9 7 9 15v15h-42l12-15zm74-7c-5-7-9-21-9-30l-2-18h37v24c0 14-4 27-9 31l-10 5-7-12zm-11-68-23-9 1-13 1-13 5 13 5 13 19-17 19-17v26c0 15-1 27-2 26-2 0-13-4-25-9zm-473-144v-16h23c12 0 29 5 37 10l15 10h-22c-12 0-28 3-37 6l-16 6v-16zm1750-321c46-18 64-17 25 0-16 8-37 14-45 14l-15-1 35-13zm326-72-7-18 12 12c7 7 10 15 7 18s-9-2-12-12zm-146-41c0-9-7-36-16-59-9-24-14-46-12-49 10-9 72 22 101 51l28 29-4 15c-2 9-8 15-13 14-6-1-27 2-47 7l-37 8v-16zm125 7c-4-6-5-12-2-15 2-3 7 2 10 11 7 17 1 20-8 4z"/></g><g fill="#2c1d1d" transform="matrix(.1 0 0 -.1 0 300)"><path d="M1770 2673c-14-2-68-15-122-28l-96-24-60-30c-33-17-66-36-73-43-8-7-25-19-39-26-93-48-194-185-238-319l-10-33h9c5 0 9-5 9-11v-10l-10 6-10 6v-15c0-19 9-20 45-6l27 10-12 15c-7 8-16 13-20 10-5-3-11-1-15 5l-6 10h12c7 0 21-7 31-17l18-16 7 6 6 7-13 25-13 24-11-6-11-6 7 8 8 8-18 14-17 15 20-8c11-4 32-7 48-7 15 0 27-1 27-2s-7-22-16-47l-15-46 3-44 4-43 8 33c5 17 12 32 17 32h9l1 28v27l15-47 15-48h27l7 88c9 123 12 137 14 59l1-68 11 7 11 6-9-18-10-19 5-42 4-43h13c7 0 16 7 19 16 4 9 9 14 13 11 3-4 23 16 45 43 22 28 44 50 49 50h8l-5-15c-4-8-9-15-13-15s-22-20-39-44l-32-44v-61l11-7 11-7 8 13 8 12 3-11 4-11 78 66 78 65-10-19c-5-10-28-35-50-55l-39-36 5-23 6-23-15 13-15 12v-50l15 9 16 9 18-20c10-12 18-21 18-22s-10-2-22-2c-13-1-33-4-45-7l-22-6 6 35 6 34h-33v-18c0-36 29-113 54-147 14-18 26-40 26-47 0-17 51-68 68-68 7 0 12-4 12-10 0-5 7-10 15-10s15-5 15-11v-10l-22 6-21 7 6-16c4-9 16-49 28-89s28-84 36-99l14-28h33c18 0 48 3 66 6l32 7-6 46-6 45-33 35-32 35 44-37 45-37h93l43-15c23-8 59-15 79-16l36-1-39-10-39-11 69-22c38-12 77-26 87-30l17-7v18l1 19 14-20c8-11 31-38 52-59l38-40-27 24c-16 13-30 21-32 19-7-6 24-142 34-153l8-8 32 22 31 22-22 36-22 37 31-29 32-30v-37l-9 5-9 6-26-21-26-20 10-20 11-19h38l4 22 4 23 2-32 1-32 48-14 47-14 6 46 6 46 1-40 2-39 43-38 42-38-30 15c-16 8-35 15-41 15h-11l-7-60-7-60 7-35c3-19 8-35 11-35 17 0 46 26 58 53l15 32-5-27c-3-14-8-33-11-42l-6-16h22v-61l13 8c6 4 41 8 77 8h65l2 10 3 10-70-1h-70v25l75-6 75-6v30l-39-3-40-2-10 12-11 13 47-1h48l3 39 3 39-17 13-18 13h12c19 0 14 20-5 21l-18 1 13 5 12 5v18c0 10-3 25-6 34l-6 15-14-6-14-5v19c0 23-82 187-105 210l-16 15-32-5c-18-4-42-9-54-13l-23-6v20l40 7c22 4 42 10 45 15l5 8-52 47c-28 25-64 53-80 61l-28 15v-11c0-5-7-10-15-10s-15 5-15 10c0 6-8 10-17 11l-18 1 25 7 25 7-54 27-53 26-14-13c-7-8-16-25-20-40-3-14-10-26-15-26h-9l10 26c6 14 14 34 20 44l10 18-18 5c-9 2-25 8-34 12l-18 7v-92h-20l4 44 4 45-11 9c-16 12-130 52-149 52h-15l-13-42-13-43-4 13c-3 7 0 27 6 44l11 32-7 6c-5 4-37 17-73 30s-87 34-113 47-51 21-56 19c-5-3-14-19-21-36-7-16-16-30-21-30-14 0-10 16 11 43 26 33 25 38-10 72-30 29-60 82-60 107v13l10-15 10-15v116l14 32c18 43 61 81 120 107l49 22 77 5 78 6 73-22 73-23 51-32c51-33 112-96 143-148 9-16 21-28 27-28 12 1 76 83 69 89-3 3-18-9-35-27l-30-32-68 78-68 77-57 30-57 30 5 18 4 17h-8c-5 0-13-7-18-15l-8-16-18 7-17 7 36 24 36 25-4 11-3 12-45 12-44 11-82 1-82 1-49-11-50-10 5-20 5-19h-22v15c0 19-3 19-38-2l-29-18 4-15 5-15-11 15-10 15-46-45-46-46-24-59-25-60v32c0 17 5 44 12 60 7 15 12 33 13 40 0 13 75 81 120 109 17 11 57 48 90 83l60 64-45-23c-49-25-178-60-223-60h-27l-11-26-10-27-18 17-18 16h-71l-5-10-6-10 3 12 3 13 24 3c68 8 245 45 253 53 6 5 18 9 28 9 9 0 38 10 63 22l46 22-3 15-3 14-35 14-35 13 43-6 42-6v10c0 5 12 14 26 21l26 12 34-7 34-6 25 16c13 9 30 16 37 16l13-1-27-17-28-17v-43l23-15 22-16-14-9-13-10 35-11 36-12 23 12 23 12-20 8-20 8h31l32 1 11 14 11 13-6 18-7 17 19-10c10-6 36-14 57-17l37-6v-17l73-5c39-3 86-8 102-12l30-8-19 21c-10 12-38 31-62 43l-44 21 7 10 6 11-10-6-10-6-30 11-29 11 22 24 23 25 11-7 11-7-13-11c-7-7-11-11-9-10 2 2 10-2 18-8l13-11v25l6-6 7-6 18 10c11 5 19 13 19 17 0 9-129 66-135 60-3-3-6-23-7-46l-1-41-7 4-8 5 5 43 5 44-23 6c-13 4-29 7-34 7h-10l1-35 2-35h-18v80h-20v-90h-22l2 33c3 51 1 67-10 67h-10v-101l-10 6-9 6 6 44 6 45h-19c-11 0-28 3-40 6l-21 6 5-53 5-52-12 7-11 7v89h-70l7-45 6-45h-23v90l-32-1c-18-1-44-4-58-6zm149-70c1-7-3-13-9-13h-10l1 33v32l9-20c5-11 9-26 9-32zm84 10 7-33h-28l4 33c4 42 3 41 8 36 2-2 6-19 9-36zm-173-27-10-10 1 35v34l10-24 10-24-11-11zm130-341v-25h-17l5 25c2 14 6 25 8 25s4-11 4-25zm-120-10c0-8-4-15-10-15-5 0-10 7-10 15s5 15 10 15c6 0 10-7 10-15zm-399-45c-9-9-17-13-19-8l-3 7-16-6-15-6 23 24 24 24 11-9 10-10-15-16zm139-200c0-22-2-40-4-40s-6 18-8 40l-4 40h16v-40zM420 2524v-132l66 35c36 19 68 33 71 30 2-3 2-15-2-26l-6-21h-13c-8 0-31-8-52-17-22-9-45-16-51-14l-13 2v-197l66-14 66-14 5-13c3-7 3-20 0-28l-6-14-48 15c-26 8-56 19-65 25l-18 9v-57l70-72 70-73v-14c0-23-9-17-76 52l-64 67v-260l43-6c24-3 55-11 70-16l27-11v-27c0-16 4-34 9-42l9-15 41 88 41 88-16 67c-20 83-31 106-58 119l-21 11h23l22 1v18l1 17 10-17c13-23 32-23 54 2l18 19-13 33c-7 18-33 73-57 121l-43 88 1 27 1 27 8-33c4-18 22-56 39-83 17-28 31-54 31-59s6-13 13-17c6-4 21-19 32-33l20-25-22 19c-27 23-29 16-7-27 18-34 31-47 50-47h12l6 32 6 32 14-19 13-18 9 6 10 5 27-52c28-52 82-114 92-105 3 3-7 21-20 40l-26 34 31 8 32 8-13 15-13 16 13 7 12 8-12 26c-7 15-17 27-24 27-6 0-22 12-36 26l-24 27 28-5 28-5-6 38-7 39h22v385l-56-3-56-4 6-51c4-28 7-115 7-194v-144l9-47c5-26 12-56 15-67l7-20-10 15c-6 8-17 42-25 75l-15 60-7 140c-4 77-8 160-8 185l-2 45-183 5-182 5v-131zm480-136v-10l-16 6c-9 3-20 6-25 6h-10l5 9 6 9 20-5c11-3 20-10 20-15zm-366-124 16-6v-48h-9c-6 0-13 5-16 10l-6 10h24l-18 20c-19 21-17 24 9 14zm53-41-5-18v60l5-12c2-7 2-21 0-30zm-40-165-5-13-1 19c-1 11 2 17 5 13 3-3 4-12 1-19zm12-225 1-13h-17c-23 0-103 33-103 43v7h100l1 13c1 13 16-30 18-50zm1766 713c-11-12-16-18-10-13 5 4 17 7 26 7 10 0 20 4 23 9l6 9-13 5-12 4-20-21zm27-32-33-14 5-9 6-8 22 4c13 2 35 13 48 24l25 19-20-1c-11 0-35-7-53-15zm-106-99 6-15h17c10 0 26 7 37 15l19 14-42 1h-42l5-15zm-517-62-44-46 20 7c11 4 44 12 73 18l52 11v27h-12c-6 0-19 7-28 15l-16 15-45-47zm149 22c-16-13-28-27-28-30s28-5 63-5h63l83-24 82-24-3 17-3 16-23 3-22 3 5 8 5 8-43 8c-56 10-86 10-122 2-16-4-23-4-15-1 8 4 21 11 28 17l13 10-13 8c-22 14-42 10-70-16zm727-55-18-20h10c13 0 38 29 31 35-3 3-13-4-23-15zM772 2090v-35l5 18c2 9 2 25 0 35l-5 17v-35zm-14-172-18-18v-22c0-13 7-45 15-72s13-51 11-53c-2-3-11 22-20 54s-21 67-26 78l-9 20v-13l-1-13-9 5-8 6-19-48c-10-26-17-58-16-72l1-25-5 13-6 13-15-21c-8-11-18-34-23-50l-8-29 11-9c7-5 26-12 42-15l31-6-4 36-5 36 11-7 10-6-5 20c-3 11-8 20-12 20-3 0-7 18-7 40l-2 40 9-6c5-3 9-14 9-25v-19h18c9 0 23-4 31-9l15-9-12-15-12-14 7-18 6-18-12 7-12 8 15-37c9-21 16-39 16-42 0-2 5-1 11 2l10 7-2-13c-1-8-1-23 0-33l1-19 7 6c3 4 6 25 5 47l-2 40h20v40h-20v20c0 11 1 20 3 20 1 0 26-9 55-20 28-11 52-17 52-14 0 4 7 1 15-6l15-12v61c0 65-5 75-20 39l-9-23v26l-1 26-22 20c-13 11-31 23-40 26l-18 6-1-32-2-32-4 30c-3 17-9 35-15 42l-10 12 7 10 6 11-8 13-8 13-17-18zm62 6c0-7 4-15 9-18l9-6 4 18 5 19h-27v-13zm-335-194c11-5 27-9 35-9l15-1-15 10c-8 5-24 9-35 9h-20l20-9zm625-2c0-12 15-42 67-134 41-74 197-213 270-241l17-7-24 25c-14 14-43 37-66 52-22 15-58 43-80 63-21 20-50 45-63 56l-25 19-1 19-2 20h10c5 0 15-8 22-17l13-17 35 1 36 1 6-19 7-20 51-24c28-14 52-24 53-22 2 2-21 22-51 45s-68 62-86 87l-32 44-9-5-9-6 2 13c1 8 1 19 0 26l-1 11-20-5c-11-3-20-10-20-15v-9l-10 6-10 6 6-15 6-16h-24l12-15c7-9 11-17 8-20-2-2-21 25-41 60-38 65-47 76-47 53zm300-28v-21l15-5 16-6-11-13-10-13 41-80 42-81 69-30c37-17 72-31 76-31h9l-38 108c-20 59-40 115-44 125l-7 18-35 14c-19 8-39 12-44 9l-9-5-22 15c-12 9-28 16-35 16h-13v-20zm-95-15-30-12 82-82c45-44 87-81 93-81h11l-32 60c-38 71-58 79-49 21l2-15-16 13-16 13v37c0 20-4 41-8 48l-7 11-30-13zm-505-15c0-11 3-21 8-21 32-6 53-5 57 2 8 12-24 39-46 39h-19v-20zm90-27c0-5 5-15 10-23l10-15v45h-10c-5 0-10-3-10-7zm-319-36-11-14 23-11c12-6 33-14 47-18l24-7-31 32c-36 35-37 36-52 18zm96-14c-21-21 32-63 79-63h24v9c0 5-16 16-35 25s-37 21-40 26c-7 12-19 13-28 3zm-119-74c0-19-1-40-1-47l1-14-34 7c-43 8-45-2-2-13l33-8 1-105c1-57-1-107-3-112l-4-7-22 15-21 15h-86v-87l48-1c48-1 48 2 0 12l-28 6v35l8-11c4-5 30-14 57-20l50-9v-39l-67 3-68 2v-28l61-7c68-8 89-14 89-27v-9l-32-1c-18 0-42-4-53-8l-20-8 31-7c17-4 37-6 44-4l12 3 5-12 4-12-70 6-70 6-1-397V240h500v420h-10c-5 0-10-6-10-12v-13l-9 13-8 14-37-43c-20-23-36-47-36-52v-9l-15 12-15 12V394l12-12 12-12-40-1c-21 0-64-2-96-2l-56-2 6 10c3 6 10 15 15 20 4 6 28 45 52 89 62 110 112 172 256 321 140 145 159 169 159 203v23l-10-6c-5-3-10-15-10-25v-19l-40-46c-22-25-40-50-40-54s-11-13-24-19l-23-10-20 19c-11 11-28 22-39 23l-19 4-22-21-22-20 6-10 6-10-10 6-10 7-67-71c-37-39-94-111-127-160l-60-89h-29v-12c0-6-2-9-5-6-8 8 14 60 22 55 5-3 27 24 49 59 23 35 37 61 30 58-6-4 1 4 15 17s45 47 67 75l42 52-5 33-5 34 14-30 15-30 1 23v22l10 1c6 1 15 2 22 3l11 1 4 25 4 25 45 46 45 46-3 34-3 34-41 14-41 14-18-7-18-6 7-7c4-4 27-10 52-13l45-5-2-10c0-5-6-8-13-7-6 2-27 6-46 9s-41 10-47 16l-13 9v58h10c6 0 10 5 10 11v10l-10-6-10-6v16c0 8 6 24 13 35l12 21-12 7-11 7v90c0 50 0 104-2 120l-2 30-9-30-9-30 6-27 5-26-14-9-14-8-5-62c-4-65-2-72 22-50l14 12-18-28-17-28 15-29 14-30h-18v-25c0-14-7-42-15-61l-15-36 9-16c5-10 12-39 15-67l6-50-8 25-8 25-26 3-27 3-20-11-21-10-21-71c-23-74-38-90-19-19 6 23 9 48 6 55l-5 13 14 19c8 10 15 29 15 42v24l-17 14-18 14 22-4 22-5 5 15c9 21 8 23-10 23h-16l5 14 6 15-15 12-14 12 9 11 9 11-8 20-7 20 20 35 19 34-10 4-11 3 5 13 5 14-30 67c-38 82-40 105-5 48 14-24 29-43 35-43 5 0 9-5 9-11v-10l-10 6-10 6 16-34 17-35 15 5 15 6 12-17 13-17 7 18c4 10 9 60 10 110l2 93-11-15-11-15-14 9-14 9 7 11c4 6 14 11 22 11h16l-4 13c-5 15-82 54-125 63l-33 7-2-34zm129-115c-3-3-12-4-19-1l-13 5 19 1c11 1 17-2 13-5zm-182-194 6-10h-42l6 10c3 6 10 10 15 10s12-4 15-10zm42-96c-3-3-12-4-19-1l-13 5 19 1c11 1 17-2 13-5zm269-57c4-4 25-7 46-7h38v-10c0-6-6-13-12-15-18-7-101 20-106 33l-3 10 15-2c9-1 19-5 22-9zm16-47 33-20-22-6-22-6 6-14 5-14h-10c-35 0-56 26-25 32l17 3-17 17c-34 34-14 38 35 8zm-272-60c0-5-15-17-32-26-18-10-45-26-60-37s-30-18-33-15c-8 7 6 39 14 33 4-2 27 9 52 26 47 31 59 35 59 19zm258-182 12-12v28l12-12 12-12-9-9-10-10-24 20c-13 10-19 19-14 19s14-5 21-12zm-231-60-4-23v90l4-22c2-13 2-33 0-45zm-122 22c-3-5-11-10-16-10h-10l6 10c3 6 11 10 16 10h10l-6-10zm51-276c-8-21-15-34-15-28-1 15 20 76 25 71 2-2-2-21-10-43zm-25-144h9l-12-20-13-20h-34l2 22c1 13 8 30 17 38l15 15 3-17c2-10 8-18 13-18zm-71 1210c0-5 5-10 11-10h10l-6 10c-3 6-8 10-11 10-2 0-4-4-4-10zm58-17c7-3 16-2 19 1 4 3-2 6-13 5l-19-1 13-5zm842-2c0-5 8-12 18-15 16-7 144-82 285-169l62-39-27 6c-16 4-28 4-28 1 0-10 67-38 193-82 73-24 162-61 200-80l67-36 30-33 30-34 5-28c8-38 19-55 36-58 7-2 31-6 52-10l37-7v34l11-6 10-7-5-13c-2-7-2-16 2-19 3-4 7-13 8-21l2-14-14-5-13-5 3-36 2-35h-24l-12-30c-11-27-21-35-42-31-5 0-7-4-5-10 1-6-4-14-10-16l-13-5v30l-30 7-30 7-30-7-30-7 5-7c2-5 25-14 50-21l45-13v-18l-22 7c-13 3-39 14-58 24l-35 17-35-9c-19-5-42-12-50-15s-26-5-40-5l-25 1 75-37 75-37-27-3-28-3-76 40-76 41h-53l44-26 43-26 10 13 10 14-5-15-4-15 31-17 31-17-18-1c-17 0-166 76-177 90-3 4-37 16-75 28-39 12-92 33-119 47s-51 24-53 21c-3-3 18-21 46-41s51-41 51-45c0-5 21-26 48-46l47-36-25 7c-14 4-27 11-30 16-5 7-52 41-88 63l-14 8 12-22c14-26 8-35-16-22l-17 9-3 29-3 29-36 31-36 32-4 22c-2 12-16 33-29 47l-26 25-5-14-6-15 10-26c6-15 15-27 21-27 5 0 10-7 10-15s5-15 10-15h10v-20c0-26-6-25-42 5-28 24-48 32-48 19 0-3 21-29 46-58l46-51 36-17 37-17-22-1c-28 0-29-10-3-33 11-9 20-23 20-30 0-8 11-24 24-37l25-22 41-8 40-7-26 46-27 46 27-24c14-14 26-30 26-36v-12l18-2c9-2 38-4 63-4l46-2-16-12c-9-7-23-13-31-13s-21-4-28-9l-13-8 18-33c10-18 28-38 38-44 11-6 23-15 26-19l6-8 27 7c14 3 29 11 33 17l6 10-11-7-12-7 6 16 7 16 22-5 22-6 41 32c23 18 42 36 42 41v10l-49-5-50-5-11 7-12 7 53 7 52 7 28 30 27 29h88l24 17 25 17-18-21-19-21 17-26 17-26h34c49 0 136 21 151 36l13 13v62l-50 21-49 20 32 22 32 22 22 69c13 39 28 80 34 91l11 21-14 48-13 48-27 3c-40 4-68 14-68 24v8l30-4c17-3 30-3 30 0 0 16-46 89-61 99-11 7-19 17-19 24s-3 13-7 13c-5 0-23 14-41 30-19 16-43 32-55 36l-21 7-4-12c-2-6-8-11-14-11h-9l6 19 6 19-43 17c-39 16-181 64-253 85l-30 9 26-22c63-53 163-120 214-143 31-15 54-28 52-31-3-2-22 4-44 15-21 11-85 36-142 57-58 21-112 45-120 53-30 26-153 101-187 114-19 7-34 16-34 20s-40 28-90 53l-90 45v-9zm830-411c0-13-11-13-30 0l-15 10h45v-10zm74-19 5-8-24 5c-14 2-25 6-25 8 0 8 39 4 44-5zm-24-51c8-5 12-11 9-14s-14 1-25 9c-21 16-8 20 16 5zm65-80 6-10h-10c-6 0-11 5-11 10 0 6 2 10 4 10 3 0 8-4 11-10zM420 1469v-10l10 6c6 3 10 8 10 11 0 2-4 4-10 4-5 0-10-5-10-11zm0-38v-21h10c6 0 10 6 10 14s-4 18-10 21l-10 6v-20zm1564-5 6-25-11-7-11-6 53-54 52-53 10 6 10 6-6-9c-9-15 3-28 53-59 24-16 51-34 58-42l14-13 9 5c14 10 11 52-12 136l-22 78-51 20c-55 22-123 41-145 41h-13l6-24zm-1499-11c22-7 44-10 49-7l8 5-13 8c-8 5-30 8-49 8l-35-1 40-13zm1060 6c6-5 49-32 97-60 48-27 99-57 113-67l25-16v9c0 5-14 17-30 27-17 9-42 28-57 42-14 13-31 24-37 24s-36 12-66 26-50 21-45 15zm-725-5c0-2 9-6 20-9l20-5-6 9c-5 9-34 13-34 5zm925-15-40-7 95-31c52-17 133-46 180-63l85-31-25 26c-14 15-37 35-51 45l-25 19-36-8-36-9-41 25c-23 13-41 28-41 34 0 10-3 10-65 0zm-1325-68v-68l9 14 10 15 53-2 53-1-34 15-34 15-19-4-18-5-1 26c-1 15-1 35 0 45l2 17h-21v-67zm60 47v-10l28 1h27l-20 9c-27 12-35 12-35 0zm-30-41v-10l10 6c6 3 10 8 10 11 0 2-4 4-10 4-5 0-10-5-10-11zm1085-29c3-5 11-10 16-10h10l-6 10c-3 6-11 10-16 10h-10l6-10zm55-20c19-13 30-13 30 0v10h-45l15-10zm-684-15c4-8 8-15 10-15s4 7 4 15-4 15-10 15h-9l5-15zm-10-52c5-5 12-12 16-18l8-10v35h-33l9-7zm1755-69 1-19 5 13c3 7 2 16-1 19-3 4-6-2-5-13zm-1740-30 1-19 5 13c3 7 2 16-1 19-3 4-6-2-5-13zm1381-26-11-23v18c-1 9-5 17-10 17h-9l21-50 21-50 7 11 7 11 12-36 11-36 25-19 25-20 14 5 14 6-5 26-5 27 15 30c9 17 16 42 16 56v26l-39 11c-21 7-52 12-68 12h-30l-11-22zm98-28 15-10-10 1c-5 0-19 4-30 9l-20 9h15c8 0 22-4 30-9zm-1970 10c0-12 8-12 35 0l20 9h-27l-28 1v-10zm246-35c-3-9-6-23-6-30v-13l24-6c14-3 27-12 29-19 2-6 3 1 1 17-5 38-10 42-31 25l-18-14 14 18 14 18-10 10-10 10-7-16zm352-22c7-3 16-2 19 1 4 3-2 6-13 5l-19-1 13-5zm-71-60-7-6 11-14c6-7 20-13 30-13h19v10c0 5-9 14-19 20-23 12-26 12-34 3zm1410-74 7-23 4 13c2 7-1 18-6 23l-11 11 6-24zm-129-31 10-10 18 4 19 4-28 6-29 6 10-10zm449-35c-4-3-25-6-46-5l-40 2-5-9-6-9 55-4 55-3v18c0 18-3 21-13 10zm-103-55 20-11 34 1 34 1-7-17c-4-9-10-25-12-34l-5-18h-27l5-15c4-8 13-15 20-15h14l10 24c5 13 12 39 15 58l6 34-63 2-63 2 19-12zm39-125c-7-2-13-12-13-20v-16l-37 5c-21 3-47 2-58-2l-20-7 43-12 42-12v-21l-22 7c-13 4-36 8-53 9l-30 1 3-13 2-13-9 5-9 6-12-15-12-15h28c16 0 39-3 51-6l23-6-6-9-6-10-36 7c-20 3-44 8-53 10l-16 4-37-29-37-29 9-6c5-3 28-8 50-12l42-7v-18l-37 7c-21 4-48 11-60 15l-23 8-30-17c-16-9-30-20-30-23s25-13 55-23l55-17-5-10c-9-14-27-11-84 12l-51 22-73-21c-83-24-194-41-285-45l-64-2 66-38c36-22 66-43 66-48v-9h-41l-77 52-76 51-86 18c-47 10-100 23-119 28-19 6-36 9-38 7s25-29 59-60l63-56h-29l-75 74-76 73-55 28c-30 15-79 46-109 68-55 42-76 49-98 34l-13-9-26 6-26 7 7-13c4-7-16 11-44 40l-50 52-5-8-5-8 44-56c55-70 143-144 237-199l72-42 92-33c51-18 132-41 180-50l89-17h290l70 15c39 9 107 30 153 48l82 31 62 42c103 69 211 192 244 280l6 17-8-1c-5 0-15-3-21-6zm-278-64c-9-28 2-36 22-16l17 17h-25l6 10 6 10h-10c-5 0-13-9-16-21zm-904-36 14-16-22 5c-28 7-28 4-2-33l20-29-7-11-7-12 11 7 12 7v-20l81-26c44-14 85-25 91-25h10l-23 21-24 20 23-11 22-11v11c0 9-22 15-43 11-5-1-28 15-53 35l-45 37 5 14 6 14-10-6-10-6v9c0 8-42 32-57 32-3 0 1-8 8-17zm-68-39c54-52 71-53 35-2-12 18-23 33-23 34s-13 4-30 8l-30 7 48-47zm977 24-45-21 20-7 20-8 30 27c16 14 32 27 34 29 18 10-23-4-59-20zm-168-25-63-4-6-15c-3-8-3-24 1-37l5-22 20-12 20-13 56 22 55 21-12 16c-7 9-8 13-4 9l9-8 13 18c19 25 17 32-8 30-13-1-51-3-86-5zm107-35-10-19 25 16c30 20 31 22 10 22h-15l-10-19zm-639-36c40-20 49-19 30 3l-12 15h-53l35-18zm230-30-65-45 110 6c61 3 134 11 163 17l54 12-22 23-22 24-48-6-48-6-29 10-28 10-65-45zm-225-12-6-10h41v10c0 6-6 10-14 10s-18-4-21-10z"/></g><g fill="#171212" transform="matrix(.1 0 0 -.1 0 300)"><path d="m1835 2671-5-10 10-6 10-6v15c0 18-6 21-15 7zm-1407-34c-5-10-8-69-8-130v-111l10 10 11 11-3 119-3 119-7-18zm461-4-14-17 13 8 12 7v-230l10-6 10-6v261h-9c-5 0-15-8-22-17zm-439-29v-36l13 5 12 4-3 24-2 24 7-11 8-12 12 13 12 13-22 6c-35 9-37 8-37-30zm135 26-20-9 20-1c11-2 23-2 27-2 3 1 9-5 12-14l6-15-10 6-10 6v-23l27 7c15 3 31 12 35 18l8 12v-31l43-2 42-2-40 20-40 20 22-4 23-4 5 8 5 8-31 6c-43 8-100 6-124-4zm235-12c0-13 5-39 10-60l10-36 18 3c9 2 19 4 22 4 2 1-1 6-7 12l-12 12 16 24 16 24-7 6-6 6v-11c0-7-4-12-10-12h-10v38l-16 6c-23 9-24 8-24-16zm1427-19c7-7 15-10 18-7s-2 9-12 12l-18 7 12-12zm-467-20c-133-15-229-50-340-124l-67-45-41-52c-50-66-82-126-82-155v-21l-12-4-12-4 7-17c3-9 11-17 17-17h10v28l1 27 15-27 14-27 15 5 15 6v139l10 18 9 18 48 7c26 3 60 13 76 20l27 15v-17l33 8c17 4 45 11 60 14l28 7 10 29 10 29 20-20c10-10 24-19 30-19h10l-7 11-7 11 23-7 23-7-7 11-7 11 15 6c9 3 16 12 16 19v14l-57 12c-32 7-62 17-68 22l-10 10 16-6c9-3 37-8 61-12l45-7 42 26c44 28 68 32 103 15l23-10 45 20c52 23 60 21 31-8l-21-21v-58l28-6c15-4 35-9 44-12l18-5-6 14-5 14 20 6 21 5v18c0 9-6 25-12 34-7 9-3 5 9-8l23-23 56 2 57 3 12-18 13-17 14 2c7 1 32-3 56-10s49-10 55-8l12 4-45 26c-61 35-186 84-235 91-22 4-53 9-70 11-55 10-169 11-235 4zm-1031-19-14-8-95 1h-95l3-39 3-39 13-10 13-10 7-40c4-22 9-52 12-67l5-27 17 6 17 7-15-19-15-19 17 7 17 6 3-21 3-22 39 78 39 77 19 10 19 10-15-30-16-30v-86l22-70 23-70 3 25 4 24 19-42c11-23 24-42 29-42 12 0 13-6-10 70l-20 65v46c0 25-3 49-7 52-4 4-6 48-6 99l1 91-12 13-12 12-15-8zm-298-70-2-60h28l-2 28c-1 15-3 42-3 60l-2 32h-17l-2-60zm40 41-13-8 10-7 10-6 6 15c6 17 6 18-13 6zm340-56v-40l11 21 10 22-11 18-10 19v-40zm499 11c0-2 8-10 18-17l17-14-14 18c-13 16-21 21-21 13zm-453-42c-4-4-7-14-7-23v-15l11 11c6 6 10 16 7 23l-3 11-8-7zm-320-48c-9-63-8-126 3-151 10-24 10-25 15 47 2 32 0 79-4 105l-7 48-7-49zm1433 20c0-2 7-6 15-10l15-5v9c0 6-7 10-15 10s-15-2-15-4zm-20-16c8-5 20-10 25-10h10l-15 10c-8 5-19 10-25 10h-10l15-10zm-1138-49-3-39 11-7c5-3 10-15 10-26v-20l10 6 10 6-6 10c-3 5-7 23-9 39l-4 29 10 6 9 6-2-12c-2-6 3-14 10-16l12-5v30l-25 16c-13 9-26 16-28 16s-4-18-5-39zm75 15c-3-8-2-27 3-43l8-28 1 43c1 43-3 52-12 28zm-487-86v-90h20v180h-20v-90zm30 65c0-27 9-35 49-40l28-4-5 25c-2 13-5 24-6 24s-16 4-34 9l-32 10v-24zm251 4c-7-12-19-39-27-61l-13-39 11-24c6-14 15-25 20-25h13c10 0 42-35 38-42-6-12 7-29 17-23l9 5-25 70-24 69-2 46c0 25-2 45-2 45-1 0-7-10-15-21zm879 1c-14-4-39-8-57-9l-32-1-15-32c-7-18-16-43-19-55l-5-22 14-5 14-5v21l13-5 14-5 43 19 44 20-15-19-14-18 21 22 22 23 8-7 7-7-7 12-6 12 9 5 9 6-5 20c-3 11-10 20-17 21-6 0-2 4 9 9l20 9-15-1c-8 0-26-4-40-8zm369-1-14-9h28c29 0 35 5 14 13-8 3-20 1-28-4zm81-17c8-5 26-13 40-16l25-7-15 9c-8 5-26 13-40 16l-25 7 15-9zm-669-21-15-10-4-65-4-66h8c17 0 73 46 84 68l11 24-6 19c-4 11-11 19-16 19h-10l6 10 6 10h-23c-13 0-30-4-37-9zm479-18v-18l8 13 9 13 16-7 17-6v22h-50v-17zm-1387-49-1-52 32-7c17-4 37-9 44-10l13-3-3 15-3 16-19 3c-10 1-26 9-34 17l-14 15 7 12 8 12 8-13 8-13 8 8 8 9-14 5c-7 2-21 12-30 21l-17 17-1-52zm141 26v-20l10 10 10 10-10 10-10 10v-20zm1196 9v-10l10 6c6 3 10 8 10 11 0 2-4 4-10 4-5 0-10-5-10-11zm-137-33v-14l14 5 13 5-6 9c-8 14-21 11-21-5zm-1048-26-6-10 7-46 7-46 14-5 15-6 8 14 9 13-12 8-12 7v74l-12 4c-6 2-14-1-18-7zm-49-21-8-27 16-30c9-17 16-38 16-47v-16l10 6 10 6v27c0 15-6 36-14 47-7 11-16 29-18 40l-5 20-7-26zm1034 5c0-16 9-18 28-5l14 8-21 6-21 5v-14zm156-4-58-19-30-28c-40-38-65-81-73-125l-7-38h19l6 43 6 42 49 46 50 46 57 18 57 18 92-5 91-5 78-36c42-20 77-32 77-28 0 11-73 50-136 71l-57 20-81-1h-81l-59-19zm-304-25-13-15h26l-15-10c-20-13-4-13 20 0l19 10-5 15c-8 19-15 18-32 0zm-71-19-13-15 7-21c11-36 29-24 37 24l3 19-11 4c-6 2-17-3-23-11zm-951-40c0-14 5-28 10-31l10-6v25c0 14-4 28-10 31l-10 6v-25zm30-1c0-17 9-19 28-6l14 8-17 7c-23 9-25 8-25-9zm963 0c-9-25 4-29 17-6l11 21h-11c-6 0-13-7-17-15zm-908-15c3-5 8-10 11-10 2 0 4 5 4 10 0 6-5 10-11 10h-10l6-10zm52-3c-3-8-1-20 4-28l9-14v28c0 29-5 35-13 14zm290-13-6-7 16-28c10-16 21-29 25-29 12 0 10 6-10 40l-19 30-6-6zm611-7c-5-10-8-31-8-45l1-27 10 18 10 18-3 27-3 27-7-18zm-1002-10c4-7 14-20 21-29l15-17 14 6c8 3 14 11 14 18v14l-22 7c-13 4-29 9-36 10l-12 2 6-11zm-36-110v-88l8 5 8 5 2 68 2 68-10 15-10 15v-88zm130 49c0-19 5-47 10-62l10-26-8-12-9-11 8-25 7-25 1 30 1 29 29-34 28-34 5 32 4 31-13 5-13 5v61l-22 35c-29 44-38 44-38 1zm-40 5c0-5 7-15 17-22l16-14-12 23c-12 23-21 28-21 13zm1822-11-12-20h9c9 0 24 30 18 36-1 2-8-6-15-16zm-1879-61 4-50 13-12 13-12-7 27-6 26 9 4c4 2 12 14 16 27l7 24-10-7-10-6-6 15c-3 8-10 15-16 15h-11l4-51zm251-86-21-25 6-27 5-26 4 18c2 9 8 17 13 17s9 8 10 18v17l9-20 9-20-1 15c0 8-3 25-6 37l-7 22-21-26zm68 2c1-16-2-40-6-52l-7-21 11-7 10-6-5-10-6-9h21v105l-10 15-10 15 2-30zm-192-13v-22h-30v-21c0-11 5-29 10-40l11-19 21 11 21 11-16 10c-10 5-17 15-17 22v13l21 9 21 9-21 19-21 19v-21zm-160-18v-25l10 6c6 3 10 15 10 26v19h-20v-26zm30 1v-17l11 4c6 2 11 8 11 13s-5 11-11 13l-11 4v-17zm1162-2c2-9 9-18 16-21l12-4v30l-16 6-15 6 3-17zm-111-14 10-20 10 7c14 9 6 27-14 30l-17 2 11-19zm24-19-6-10 35-42c33-38 80-73 131-97 11-5 41-28 68-51 26-23 47-38 47-34s5 3 12-4l12-12h125l6-10c3-5 17-10 30-10h24l14-14 14-15 39-4 39-4-38-1-39-2 4-11c3-8 99-49 115-49 2 0 3 10 3 22v22l35-34c19-19 35-38 35-42s18-26 40-48l41-41 37-2 37-2-1 18-2 18 19-17c22-20 46-83 54-146l6-46 25-6 25-7 9-25c6-14 10-29 10-34v-8l-37 19-38 19-3-10c-2-6 1-16 7-23l10-13-5-36-6-36 22-7c12-4 23-5 24-3 1 1 10 14 19 27l16 24-1-52c0-29 3-55 6-58 3-4 6 11 7 33v39l9-20 9-20 1 40 2 40 13-35c7-19 14-30 14-25l1 10 8-12 8-12 21 5 21 6 5 19 5 19h-43v25c0 29 1 30 22 10l15-16 7 7 6 7-12 4c-7 2-11 10-9 16 1 7 1 9-1 5s-11-4-19-1l-14 5-5-14-6-14-34 4-35 4v43l11-15 11-15-8 35c-4 19-7 52-7 73l1 37-16 1-17 1 30 9 30 9 15-6 15-6-24-9-23-9 6-16 6-15-13 7-12 7 8-9c5-5 14-9 20-9h12l-3-20-3-20 11 15 11 15-4-20-3-20-13 3-12 2 3-22 3-23h50l-3 14-3 13 16-6 16-6-27 36-27 35 19 14 19 15-17-6-18-6v10c0 6 5 14 11 18l12 7-17 9-16 9 6 11 7 11-36-6-37-6v7c0 4 14 13 31 19l30 12-11 20-11 21h-19c-11 0-20-4-20-9s-11-11-25-13l-25-5-10 12-11 13 46 6 45 7v28l-15-5-14-6-16 15-15 15 8 5c4 2 1 2-6 0-8-1-19-3-26-3h-13v-28l15 6 15 5-7-11c-4-7-13-12-19-12-15 0-67 47-67 60v10l23 1c12 1 28 1 35 0 6-1 12 3 12 9v10h-19c-11 0-31-4-45-9l-25-10-23 18c-37 30-131 83-158 91l-25 6-1 43c-2 53-10 62-24 26l-10-27 11-14 11-14h-11c-7 0-24 6-39 14-15 7-88 34-162 60-74 25-141 52-148 60l-14 14 6 11 7 10 16-6 16-6-6 10-7 11 23 6 22 7-39 15-39 14-19-16c-23-21-23-33 0-51l17-14-25 7c-44 12-117 52-151 84-19 16-39 30-47 30h-13l6 9 5 10-9 5-10 6-6-10zm120 0-6-10h15c9 0 16 5 16 10 0 6-4 10-9 10-6 0-13-4-16-10zm30-29-5-10 8-5 9-5v14c0 17-3 19-12 6zm-764-37 1-19 5 13c3 7 2 16-1 19-3 4-6-2-5-13zm-345-3-6-9 15-5 14-6-6 15c-6 16-10 17-17 5zm199-31c1-17 5-33 8-37l7-6v73h-17l2-30zm690-17c11-11 39-28 63-37l43-16 6 16 6 15-9 9c-5 5-27 11-49 13-22 3-49 8-60 12l-20 8 20-20zm-815-3c0-5 5-10 10-10 6 0 10 5 10 10 0 6-4 10-10 10-5 0-10-4-10-10zm510-15c0-8 4-15 10-15h9l-5 15c-4 8-8 15-10 15s-4-7-4-15zm795-11c-8-13-15-29-14-36v-13l11 23 11 22h58l-5 9c-3 5-15 11-25 14l-20 5-16-24zm68-12-11-7 17-21 17-21 11 23c15 31-3 45-34 26zm-566-16c-2-6-2-17 0-24l5-12 9 6 9 5v-29l16-6c20-8 20-9 27 32l7 32-8 2c-4 0-19 2-34 3l-27 2-4-11zm185-8c16-25 65-52 112-64l29-7-24 33c-28 37-67 60-105 60h-26l14-22zm-452-6c0-12 19-26 26-19 2 2-2 10-11 17l-15 12v-10zm347 2c-11-11-8-73 3-95l11-19h30l-5-9-5-8 25-11 25-12 8 22 8 23-14 41-14 41-27 14c-15 7-30 15-33 16-3 2-8 0-12-3zm107-59c4-16 12-33 17-36 6-3 11-14 13-23 5-33 62-48 96-26l15 10-19 11-18 11 12 8 12 7-51 27c-28 14-51 23-51 20 0-4-7 0-17 7l-16 14 7-30zm574 8c-8-10-18-24-22-31l-8-13 41 2 41 3v26h25l-15 10-15 10-19-6-19-6 7 11c11 17 1 13-16-6zm-850-29 23-16 7 7 6 6-14 9c-8 6-22 10-30 10h-14l22-16zm-796-6c3-7 15-15 29-19l24-6 20 10 20 10-20 8c-11 4-33 8-48 8l-29 1 4-12zm-1-60 1-33 5 18c5 20 15 21 68 2 21-8 41-12 43-10 4 4-100 55-112 55-3 0-5-15-5-32zm729 13c0-13 28-33 41-29l12 4-27 17-26 17v-9zm1063-10-12-20 20-6 20-7 27 7 27 7-23 9-23 9 6 10 6 10h-36l-12-19zm-899-30c4-6 16-16 28-22l20-11-6 11c-4 6-16 16-28 22l-20 11 6-11zm561 0-6-11 28-11c15-5 35-8 45-6l18 5v-28h19c11 0 23-4 26-10 3-5 15-10 26-10h21l-4 13c-5 15-44 34-78 39-14 1-27 6-30 10-3 3-17 9-32 13l-26 7-7-11zm-1435-5c0-3 4-16 10-31l10-26 22 12c33 17 33 18 12 34-18 13-54 21-54 11zm-18-65 1-40 9 5 8 5v-26l9 14 9 14-10 28c-5 16-14 32-19 35l-9 5 2-40zm210 27c-1-9-6-18-11-20-5-1-12-22-16-45l-7-43h9c4 0 14 4 21 9l13 8-4 54c-2 30-4 47-5 37zm-97-8c3-5 13-10 21-10h15l-6 10c-3 6-13 10-21 10h-15l6-10zm975-15c33-19 49-19 24 0-10 8-26 14-34 14h-15l25-14zm384-16 1-32 25-2c14-2 30 2 36 6l11 9 6-30 7-30h28l21-36 21-35 9 5c5 3 12 21 15 40l6 34-9 24-9 24-38 12c-20 6-41 9-46 6l-8-5v10c0 9-9 13-61 27l-16 4 1-31zm-464 13c0-10 48-37 55-31 2 3-9 13-25 23l-30 17v-9zm654-21c3-5 15-11 26-14l21-5-12 14c-6 8-18 14-26 14h-14l5-9zm-444-20c0-5 11-11 25-13l25-5v7c0 8-25 20-41 20-5 0-9-4-9-9zm-1360-11c0-5 5-10 10-10 6 0 10 5 10 10 0 6-4 10-10 10-5 0-10-4-10-10zm38-7c6-2 18-2 25 0l12 5h-50l13-5zm1392 2c0-3 10-21 23-40l22-35 20-7c43-16 65-7 65 29v16l-52 17c-29 9-59 18-65 20-7 3-13 2-13 0zm-1139-21 1-19 5 13c3 7 2 16-1 19-3 4-6-2-5-13zm1523-10c4-16 13-32 19-36l12-8 16 20c9 10 18 18 20 17 3-1 0 3-6 10-5 6-23 15-39 19l-29 7 7-29zm134 4-16-13 2-54 1-54 44-13 43-13-6 52c-12 87-36 120-68 95zm-1795-4-12-5 6-15 5-14-10-13-10-12 4-30c2-16 6-50 8-75l3-45-11-7-10-7 27-10c16-6 38-11 50-10l22 1-32 10c-36 12-42 24-15 31l17 5-22 7c-28 9-28 14-6 30l18 13-19 21-19 21h23l11 27 10 27-16 12-15 11 6 17c6 17 6 17-13 10zm1117-14v-9l63-20c116-36 232-82 294-117l61-34 20-28 20-27 8 8 8 7-43 44-42 43-122 48c-264 104-267 104-267 85zm-922-66-3-66 7-12 8-11v78c0 42-2 77-4 77s-6-30-8-66zm-342 47c-4-7-5-15-2-18 9-9 19 4 14 18l-4 13-8-13zm24-11c0-5 5-10 10-10 6 0 10 5 10 10 0 6-4 10-10 10-5 0-10-4-10-10zm1535 0-7-12 10-10 10-10 29 10 28 10-20 1c-12 1-26 6-32 12l-11 11-7-12zm98-30 6-22-20 5-19 5v-11c0-7 4-18 9-26l9-14 13 9c8 4 28 7 46 5l33-3v10c0 11-28 36-59 52l-24 12 6-22zm211 9-6-11 11-11 11-11v22c0 24-5 28-16 11zm28-19v-35l5 18c2 9 2 25 0 35l-5 17v-35zm-1854-57c-10-2-18-9-18-14v-9h48l6 15 5 15-12-1c-7-1-20-3-29-6zm367-23-19-7 34-6c39-8 50-3 23 11l-18 9-20-7zm-63-47-2-43h-25l14-9 13-9-16-9-17-9 7-17 6-17 9 6 9 5v-42l-10 6-10 6v-9c0-5 7-15 16-22l15-13 29 31 29 32h-40l-7-17-7-18-6 95-5 95-2-42zm1643 7-6-20 10-17 10-18 1 38c0 41-5 47-15 17zm-1567-7c7-3 16-2 19 1 4 3-2 6-13 5l-19-1 13-5zm1478-29c1-19 7-41 13-48l11-13 24 4 24 5 5 18 4 17-10 19c-14 25-27 34-53 34h-21l3-36zm-1823 19c9-2 23-2 30 0l12 5h-60l18-5zm408-2c0-7-20-31-43-52-52-47-39-52 16-6l38 33-5 19-5 20-1-14zm1309-22c0-4 11-6 25-6h25l-5 8c-6 9-45 8-45-2zm-1771-16-1-18-5 13c-2 6-9 12-14 12h-9V879l10 6 10 6 2 52 1 52 4-37 4-38 20 3c23 4 62 44 66 69l3 19-26 9c-14 6-34 10-45 10h-19l-1-17zm107-6-8-18 15-17 15-17-14-13-14-13-1-37-2-37-4 28-4 27h-14c-8 0-35-12-60-27l-45-28V351l10-6 10-6 2 53 1 53 7-60 6-60 11 25c5 14 25 71 44 128l33 102 13-4 13-5v40l12-7 11-7-8 34c-4 19-9 72-10 119l-3 85 7-19 8-20 6 25c4 13 7 33 7 44l-1 20-15-25-15-25 7 25c4 14 8 34 9 45l2 20 15 3 16 3 5 20 5 19-19 11c-11 5-23 7-28 4l-10-5-4 22-3 23-8-18zM447 813l-5-18v60l5-12c2-7 2-21 0-30zm103 16v-22l-21-18-21-18 7-10 6-11h-30l-20-26-21-27-2-101-2-101-5 110c-4 61-4 128-2 150l5 40 5-30 6-29 42 42 42 43-6 14-5 15h22v-21zm0-64c0-8-4-15-10-15h-9l5 15c4 8 8 15 10 15s4-7 4-15zm537 248c-4-3-7-11-7-17v-10l12 12c6 6 9 14 7 17-3 3-9 2-12-2zm1073-12c0-6 5-13 10-16l10-6v15c0 9-4 16-10 16-5 0-10-4-10-9zm51-17 1-19 5 13c3 7 2 16-1 19-3 4-6-2-5-13zm19-2c0-4 9-13 20-19l19-13 7 11 7 11-14 9c-17 11-39 12-39 1zm71-9c0-4 4-17 9-28l9-20v22c1 12-3 25-9 28l-10 6 1-8zM654 914l-21-19-17-55c-9-30-19-69-22-87l-6-32 6-35 7-35 12 5c7 2 13 13 14 22l1 18 56 58c31 32 53 62 51 66-3 5 0 10 5 12l11 3-17 34-16 33-17-16-16-16 13-20 12-20h-14c-8 0-20-8-25-17l-10-18-1 33c0 18 5 42 11 53 5 11 9 27 7 36l-3 15-21-18zm192-42c-3-5 3-16 14-25l19-16 10 13 11 12-12 12c-14 14-35 16-42 4zm1449-32c3-5 8-10 11-10 2 0 4 5 4 10 0 6-5 10-11 10h-10l6-10zM830 818c0-9 5-20 10-23l10-6v8c0 4-5 15-10 23l-10 15v-17zm36-56-70-67 7 18 7 18-33 19-32 20-23-28c-13-15-52-71-88-124l-65-98h-26l-33-100c-18-56-31-103-28-105 7-8 103 42 129 66 13 13 53 71 87 129l63 105 70 80c68 78 114 135 107 135-2 0-34-31-72-68zm-79 37c7-7 15-10 18-7s-2 9-12 12l-18 7 12-12zm1466-43c-9-20-21-36-25-36-5 0-19-10-31-21-12-12-35-27-51-34l-29-13-25 25-24 24-15-5-14-6 6 10 6 10h-43l12-15c7-8 19-15 26-15 8 0 14-4 14-10 0-5 5-9 12-7l12 2 4-17 3-18h-41v-31l-21 6-20 7-27-7-27-7 17-9 17-10 46 4 45 4 53 32 52 33-37-35c-43-40-44-44-19-74l19-23h72v15c0 8-3 15-7 15-5 0-19 9-33 20l-25 20 59-20c73-25 76-25 76-1v19l-15 6c-8 3-15 9-14 13s1 14 0 21l-1 12h-19c-11 0-26 3-35 6l-15 6 35 36c20 21 42 49 50 64l14 27-10 6-10 6-17-35zM770 776c0-3 15-15 33-27l32-23-14 17c-14 18-51 42-51 33zm1890-6c0-5 5-10 10-10 6 0 10 5 10 10 0 6-4 10-10 10-5 0-10-4-10-10zm-1246-44c4-26 27-45 91-75l62-30 32-40 32-40 37-12c20-7 39-13 42-12 3 0 23 3 45 7l40 6-25-15-25-16 55 5c30 3 67 6 83 6h27l10 25 10 26 21 7 21 8-42 17-43 16-10-6-10-6 7 11 7 12-18-2c-33-2-53 2-53 12v9l18-5 17-6-15 10c-8 6-18 8-22 6l-8-5v26l-9-14-9-14-26 17-27 17 6 9 6 10-14-6-14-5-14 13c-8 8-22 17-31 21l-18 6v-40l-10 6c-5 3-10 4-10 1s17-16 37-30l36-25 10 6 10 6-7-11-6-10 17-5 18-5-27-1c-26-1-78 17-88 30-3 4-23 8-45 10-22 1-45 7-52 12l-12 9-12-8-12-7 7 11 6 10-27 20c-16 10-38 24-50 30l-21 12 2-14zm1229-33c-14-29-8-47 7-23 9 13 14 50 8 50-2 0-9-12-15-27zm-673-38c14-8 30-14 35-14 6 0-1 6-15 14s-29 14-35 14c-5 0 1-6 15-14zm618-61-27-44h-45l18-13 18-13-16-13-16-14-58 6-57 6-24-20-25-20 15-10c7-5 23-8 35-6l20 3 13-13 12-13-6-10-6-9-32 5c-18 3-44 10-59 16l-28 10-30-12-30-12 5-8c3-5 30-14 60-21l54-12-5-8c-2-4 0-10 5-13l9-6 49 38c67 53 140 137 169 194l24 47-8 4c-4 3-19-15-34-39zM841 604c-12-15-24-39-28-53l-6-25-11 25-11 24-3-89-3-89 13-9 13-8-15-10-15-10-70-1c-38-1-73-1-78 0-4 1-34-13-68-29l-60-31-6-14-5-15h-57l5 14 6 15-11 18-11 18 2-45 3-45 195-3c107-2 219 0 248 3l52 6v349h-9c-5 0-12-6-14-12l-5-13-1 16c-1 9-7 22-15 28l-14 12-21-27zm69-83c0-9-110-74-116-68-1 1 1 18 6 37l8 35 1-22c1-29 8-29 51 2 38 26 50 30 50 16zM691 313l-10-18-1 16c0 17 10 32 18 25 2-3-1-13-7-23zm822 310c-29-11 3-65 55-92l22-12v26l10-15 10-15v10c0 16-49 84-68 93-9 5-23 7-29 5zm77-75v-10l-15 12c-8 7-15 17-15 22v10l15-12c8-7 15-17 15-22zm-472-38 20-32 73-55c125-94 277-158 449-188l85-15h80l80 1-20 11c-11 6-22 14-25 17-16 19-72 51-89 51h-20l-10 18-9 18-89 17c-48 9-99 20-112 24l-25 6 55-49c31-27 64-54 75-61l19-12h-28l-29-1-86 83-87 83-35 14c-19 7-46 21-60 31-29 19-38 21-63 8l-18-10 6-10 6-9h-10c-6 0-19 9-30 21l-20 21-13-4-13-5-38 30-38 30 19-33zm268-126c30-28 54-55 54-59 0-10 6-16-85 74-41 41-75 76-75 79 0 6 20-12 106-94zm104-74 15-10-10 1c-5 0-19 4-30 9l-20 9h15c8 0 22-4 30-9zm-43 179c7-7 15-10 18-7s-2 9-12 12l-18 7 12-12zm766 4c9-2 23-2 30 0l12 5h-60l18-5zm-470-10c15-2 37-2 50 0l22 4h-100l28-4zm78-7-53-11 18-16c11-9 34-19 51-21l33-5 15 24c9 13 12 23 8 23-5 0-1 5 7 10l15 10-20-1c-11-1-44-6-74-13zm307-2c-3-3-4-13-1-23l5-18 26-2c55-3 66-2 81 14l15 15h-34v20h-43c-24 0-46-3-49-6zm-436-34 13-20 13 5 13 5-5-9-6-9 26-6c37-10 41 0 14 29l-23 25h-57l12-20zm367-25c-3-2-43-5-91-6l-86-2 11-24 11-24 35 5c20 3 61 8 91 11 57 6 74 13 77 30l2 11-23 2c-13 1-25 0-27-3zm136-35-20-8 25-10c14-5 41-16 60-25l35-14-29-8-28-8-7 10c-3 5-26 17-51 26l-46 17-69-14c-39-7-62-14-52-15l17-1v-20c0-11-3-20-6-20-10 0-49 23-55 32l-6 9-74-3-74-3 47-27 47-28h23c13 0 30-4 38-10l14-9-17-7c-9-3-17-10-17-15v-9h33c17 0 73 9 122 19l90 19 79 34c44 19 82 40 84 46l4 12h-20c-11 0-41 9-67 20-51 22-52 22-80 10zm-367-17c6-2 18-2 25 0l12 5h-50l13-5z"/></g></g></svg>